# xmcd CD database file
#
# Track frame offsets:
#	150
#	16245
#	28745
#	41625
#	48940
#	62907
#	74932
#	91130
#	104500
#	119135
#	183247
#	193705
#	214755
#
# Disc length: 3094 seconds
#
# Revision: 0
# Processed by: cddbd v1.5.2PL0 Copyright (c) Steve Scherf et al.
# Submitted via: CDex 1.51
#
DISCID=c30c140d
DTITLE=Glen Campbell - Glen Campbell Live
DYEAR=2003
DGENRE=Country
TTITLE0=Gentle On My Mind
TTITLE1=By The Time I Get To Phoenix
TTITLE2=Galveston
TTITLE3=Kentucky Means Paradise
TTITLE4=Witchita Lineman
TTITLE5=Mansion In Branson
TTITLE6=Here In The Real World
TTITLE7=Classical Gas
TTITLE8=Rhinestone Cowboy
TTITLE9=Hit Medley
TTITLE10=Let It Be Me
TTITLE11=No More Nights
TTITLE12=Southern Nights
EXTD=YEAR: 2003
EXTT0=
EXTT1=
EXTT2=
EXTT3=
EXTT4=
EXTT5=
EXTT6=
EXTT7=
EXTT8=
EXTT9=
EXTT10=
EXTT11=
EXTT12=
PLAYORDER=
